<svg width="32" height="33" viewBox="0 0 32 33" fill="none" xmlns="http://www.w3.org/2000/svg">
<g clip-path="url(#clip0_148_1207)">
<path fill-rule="evenodd" clip-rule="evenodd" d="M32 0.5H0V32.5H32V0.5ZM7.68099 13.7519H11.3069V24.6464H7.68099V13.7519ZM11.5457 10.3818C11.5222 9.31358 10.7583 8.49998 9.51791 8.49998C8.27749 8.49998 7.46655 9.31358 7.46655 10.3818C7.46655 11.4278 8.25352 12.2649 9.47084 12.2649H9.49401C10.7583 12.2649 11.5457 11.4278 11.5457 10.3818ZM20.2087 13.4961C22.5947 13.4961 24.3835 15.0535 24.3835 18.3998L24.3833 24.6464H20.7575V18.8178C20.7575 17.3538 20.2328 16.3548 18.9202 16.3548C17.9185 16.3548 17.3218 17.0283 17.0598 17.6788C16.9639 17.9119 16.9403 18.2367 16.9403 18.5623V24.6467H13.314C13.314 24.6467 13.3618 14.7745 13.314 13.7522H16.9403V15.2953C17.4216 14.5535 18.2835 13.4961 20.2087 13.4961Z" fill="#292D32"/>
</g>
<defs>
<clipPath id="clip0_148_1207">
<rect y="0.5" width="32" height="32" rx="2.66667" fill="white"/>
</clipPath>
</defs>
</svg>
