<svg width="20" height="20" viewBox="0 0 20 20" fill="none" xmlns="http://www.w3.org/2000/svg">
<path d="M9.16667 13.3333L5.83333 10M5.83333 10L9.16667 6.66667M5.83333 10H17.5M13.3333 13.3333V14.1667C13.3333 14.8297 13.0699 15.4656 12.6011 15.9344C12.1323 16.4033 11.4964 16.6667 10.8333 16.6667H5C4.33696 16.6667 3.70107 16.4033 3.23223 15.9344C2.76339 15.4656 2.5 14.8297 2.5 14.1667V5.83333C2.5 5.17029 2.76339 4.53441 3.23223 4.06557C3.70107 3.59672 4.33696 3.33333 5 3.33333H10.8333C11.4964 3.33333 12.1323 3.59672 12.6011 4.06557C13.0699 4.53441 13.3333 5.17029 13.3333 5.83333V6.66667" stroke="#212121" stroke-width="0.75" stroke-linecap="round" stroke-linejoin="round"/>
</svg>
